<svg width="180" height="18" viewBox="0 0 180 18" fill="none" xmlns="http://www.w3.org/2000/svg">
<g clip-path="url(#clip0_99_20056)">
<rect x="20.5" y="7" width="2" height="4" rx="1" fill="white"/>
<rect x="24" y="3" width="2" height="11" rx="1" fill="white"/>
<rect x="27.5" width="2" height="18" rx="1" fill="white"/>
<rect x="31" y="3" width="2" height="11" rx="1" fill="white"/>
<rect x="34.5" y="7" width="2" height="3" rx="1" fill="white"/>
<rect x="38" y="3" width="2" height="11" rx="1" fill="white"/>
<rect x="41.5" width="2" height="18" rx="1" fill="white"/>
<rect x="45" y="3" width="2" height="11" rx="1" fill="white"/>
<rect x="48.5" y="7" width="2" height="4" rx="1" fill="white"/>
<rect x="52" y="4" width="2" height="8" rx="1" fill="white"/>
<rect x="55.5" y="2" width="2" height="14" rx="1" fill="white"/>
<rect x="59" y="8" width="2" height="2" rx="1" fill="white"/>
<rect x="20.5" y="7" width="2" height="4" rx="1" fill="white"/>
<rect x="24" y="3" width="2" height="11" rx="1" fill="white"/>
<rect x="27.5" width="2" height="18" rx="1" fill="white"/>
<rect x="31" y="3" width="2" height="11" rx="1" fill="white"/>
<rect x="34.5" y="7" width="2" height="3" rx="1" fill="white"/>
<rect x="38" y="3" width="2" height="11" rx="1" fill="white"/>
<rect x="41.5" width="2" height="18" rx="1" fill="white"/>
<rect x="45" y="3" width="2" height="11" rx="1" fill="white"/>
<rect x="48.5" y="7" width="2" height="4" rx="1" fill="white"/>
<rect x="52" y="4" width="2" height="8" rx="1" fill="white"/>
<rect x="55.5" y="2" width="2" height="14" rx="1" fill="white"/>
<rect x="59" y="8" width="2" height="2" rx="1" fill="white"/>
<rect x="62" y="7" width="2" height="4" rx="1" fill="white"/>
<rect x="65.5" y="3" width="2" height="11" rx="1" fill="white"/>
<rect x="69" width="2" height="18" rx="1" fill="white"/>
<rect x="72.5" y="3" width="2" height="11" rx="1" fill="white"/>
<rect x="76" y="7" width="2" height="3" rx="1" fill="white"/>
<rect x="79.5" y="3" width="2" height="11" rx="1" fill="white"/>
<rect x="83" width="2" height="18" rx="1" fill="white"/>
<rect x="86.5" y="3" width="2" height="11" rx="1" fill="white"/>
<rect x="90" y="7" width="2" height="4" rx="1" fill="white"/>
<rect x="93.5" y="4" width="2" height="8" rx="1" fill="white"/>
<rect x="97" y="2" width="2" height="14" rx="1" fill="white"/>
<rect x="100.5" y="8" width="2" height="2" rx="1" fill="white"/>
<rect x="62" y="7" width="2" height="4" rx="1" fill="white"/>
<rect x="65.5" y="3" width="2" height="11" rx="1" fill="white"/>
<rect x="69" width="2" height="18" rx="1" fill="white"/>
<rect x="72.5" y="3" width="2" height="11" rx="1" fill="white"/>
<rect x="76" y="7" width="2" height="3" rx="1" fill="white"/>
<rect x="79.5" y="3" width="2" height="11" rx="1" fill="white"/>
<rect x="83" width="2" height="18" rx="1" fill="white"/>
<rect x="86.5" y="3" width="2" height="11" rx="1" fill="white"/>
<rect x="90" y="7" width="2" height="4" rx="1" fill="white"/>
<rect x="93.5" y="4" width="2" height="8" rx="1" fill="white"/>
<rect x="97" y="2" width="2" height="14" rx="1" fill="white"/>
<rect x="100.5" y="8" width="2" height="2" rx="1" fill="white"/>
<rect x="103.5" y="7" width="2" height="4" rx="1" fill="white"/>
<rect x="107" y="3" width="2" height="11" rx="1" fill="white"/>
<rect x="110.5" width="2" height="18" rx="1" fill="white"/>
<rect x="114" y="3" width="2" height="11" rx="1" fill="white"/>
<rect x="117.5" y="7" width="2" height="3" rx="1" fill="white"/>
<rect x="121" y="3" width="2" height="11" rx="1" fill="white"/>
<rect x="124.5" width="2" height="18" rx="1" fill="white"/>
<rect x="128" y="3" width="2" height="11" rx="1" fill="white"/>
<rect x="131.5" y="7" width="2" height="4" rx="1" fill="white"/>
<rect x="135" y="4" width="2" height="8" rx="1" fill="white"/>
<rect x="138.5" y="2" width="2" height="14" rx="1" fill="white"/>
<rect x="142" y="8" width="2" height="2" rx="1" fill="white"/>
<rect x="103.5" y="7" width="2" height="4" rx="1" fill="white"/>
<rect x="107" y="3" width="2" height="11" rx="1" fill="white"/>
<rect x="110.5" width="2" height="18" rx="1" fill="white"/>
<rect x="114" y="3" width="2" height="11" rx="1" fill="white"/>
<rect x="117.5" y="7" width="2" height="3" rx="1" fill="white"/>
<rect x="121" y="3" width="2" height="11" rx="1" fill="white"/>
<rect x="124.5" width="2" height="18" rx="1" fill="white"/>
<rect x="128" y="3" width="2" height="11" rx="1" fill="white"/>
<rect x="131.5" y="7" width="2" height="4" rx="1" fill="white"/>
<rect x="135" y="4" width="2" height="8" rx="1" fill="white"/>
<rect x="138.5" y="2" width="2" height="14" rx="1" fill="white"/>
<rect x="142" y="8" width="2" height="2" rx="1" fill="white"/>
<rect x="145" y="7" width="2" height="4" rx="1" fill="white"/>
<rect x="148.5" y="3" width="2" height="11" rx="1" fill="white"/>
<rect x="152" width="2" height="18" rx="1" fill="white"/>
<rect x="155.5" y="3" width="2" height="11" rx="1" fill="white"/>
<rect x="159" y="7" width="2" height="3" rx="1" fill="white"/>
<rect x="162.5" y="3" width="2" height="11" rx="1" fill="white"/>
<rect x="166" width="2" height="18" rx="1" fill="white"/>
<rect x="169.5" y="3" width="2" height="11" rx="1" fill="white"/>
<rect x="173" y="7" width="2" height="4" rx="1" fill="white"/>
<rect x="176.5" y="4" width="2" height="8" rx="1" fill="white"/>
<rect x="145" y="7" width="2" height="4" rx="1" fill="white"/>
<rect x="148.5" y="3" width="2" height="11" rx="1" fill="white"/>
<rect x="152" width="2" height="18" rx="1" fill="white"/>
<rect x="155.5" y="3" width="2" height="11" rx="1" fill="white"/>
<rect x="159" y="7" width="2" height="3" rx="1" fill="white"/>
<rect x="162.5" y="3" width="2" height="11" rx="1" fill="white"/>
<rect x="166" width="2" height="18" rx="1" fill="white"/>
<rect x="169.5" y="3" width="2" height="11" rx="1" fill="white"/>
<rect x="173" y="7" width="2" height="4" rx="1" fill="white"/>
<rect x="176.5" y="4" width="2" height="8" rx="1" fill="white"/>
<rect width="2" height="18" rx="1" fill="white"/>
<rect x="3.5" y="3" width="2" height="11" rx="1" fill="white"/>
<rect x="7" y="7" width="2" height="4" rx="1" fill="white"/>
<rect x="10.5" y="4" width="2" height="8" rx="1" fill="white"/>
<rect x="14" y="2" width="2" height="14" rx="1" fill="white"/>
<rect x="17.5" y="8" width="2" height="2" rx="1" fill="white"/>
<rect width="2" height="18" rx="1" fill="white"/>
<rect x="3.5" y="3" width="2" height="11" rx="1" fill="white"/>
<rect x="7" y="7" width="2" height="4" rx="1" fill="white"/>
<rect x="10.5" y="4" width="2" height="8" rx="1" fill="white"/>
<rect x="14" y="2" width="2" height="14" rx="1" fill="white"/>
<rect x="17.5" y="8" width="2" height="2" rx="1" fill="white"/>
</g>
<defs>
<clipPath id="clip0_99_20056">
<rect width="180" height="18" fill="white"/>
</clipPath>
</defs>
</svg>
