<svg width="212" height="22" viewBox="0 0 212 22" fill="none" xmlns="http://www.w3.org/2000/svg">
<path d="M145.976 4.3335H144.465C143.84 4.3335 143.333 4.84375 143.333 5.47309V19.9081C143.333 20.5374 143.84 21.0477 144.465 21.0477H145.976C146.601 21.0477 147.108 20.5374 147.108 19.9081V5.47309C147.108 4.84375 146.601 4.3335 145.976 4.3335Z" fill="white"/>
<path d="M156.544 4.3335H155.034C154.409 4.3335 153.901 4.84375 153.901 5.47309V15.3496C153.901 15.979 154.409 16.4893 155.034 16.4893H156.544C157.169 16.4893 157.676 15.979 157.676 15.3496V5.47309C157.676 4.84375 157.169 4.3335 156.544 4.3335Z" fill="white"/>
<path d="M151.26 11.9307H149.749C149.124 11.9307 148.617 12.4409 148.617 13.0703V19.9079C148.617 20.5372 149.124 21.0475 149.749 21.0475H151.26C151.885 21.0475 152.392 20.5372 152.392 19.9079V13.0703C152.392 12.4409 151.885 11.9307 151.26 11.9307Z" fill="white"/>
<path d="M161.828 11.9307H160.319C159.693 11.9307 159.186 12.4409 159.186 13.0703V19.9079C159.186 20.5372 159.693 21.0475 160.319 21.0475H161.828C162.454 21.0475 162.96 20.5372 162.96 19.9079V13.0703C162.96 12.4409 162.454 11.9307 161.828 11.9307Z" fill="white"/>
<path d="M6.39112 20.7437H0.125977V1.34975H6.58958C8.48581 1.34975 10.1143 1.73805 11.4751 2.51457C12.8358 3.28472 13.8784 4.39272 14.6029 5.83836C15.3337 7.27775 15.699 9.00441 15.699 11.0184C15.699 13.0386 15.3305 14.7747 14.5935 16.2267C13.8627 17.6787 12.8044 18.7961 11.4184 19.5789C10.0324 20.3554 8.35664 20.7437 6.39112 20.7437ZM3.04594 18.1869H6.23048C7.70463 18.1869 8.92999 17.9091 9.90639 17.3535C10.8829 16.7917 11.6136 15.9804 12.0988 14.9198C12.5838 13.8529 12.8264 12.5524 12.8264 11.0184C12.8264 9.49682 12.5838 8.20585 12.0988 7.14523C11.62 6.08462 10.9049 5.27969 9.95367 4.73046C9.00235 4.18123 7.82118 3.90657 6.41003 3.90657H3.04594V18.1869ZM19.1033 20.7437V6.19826H21.9287V20.7437H19.1033ZM20.5303 3.95395C20.0389 3.95395 19.6168 3.78975 19.264 3.46154C18.9175 3.12687 18.7442 2.72913 18.7442 2.26831C18.7442 1.80113 18.9175 1.40339 19.264 1.07513C19.6168 0.740534 20.0389 0.573242 20.5303 0.573242C21.0216 0.573242 21.4405 0.740534 21.7871 1.07513C22.1399 1.40339 22.3162 1.80113 22.3162 2.26831C22.3162 2.72913 22.1399 3.12687 21.7871 3.46154C21.4405 3.78975 21.0216 3.95395 20.5303 3.95395ZM28.3286 15.81L28.3097 12.3535H28.8011L34.5843 6.19826H37.9673L31.3714 13.2058H30.9272L28.3286 15.81ZM25.7299 20.7437V1.34975H28.5554V20.7437H25.7299ZM34.8961 20.7437L29.6987 13.8308L31.6454 11.8517L38.3642 20.7437H34.8961ZM47.3177 6.19826V8.47098H39.3894V6.19826H47.3177ZM41.5157 2.71344H44.3411V16.4728C44.3411 17.0221 44.423 17.4356 44.5868 17.7134C44.7506 17.9848 44.9616 18.1711 45.2199 18.2721C45.4845 18.3668 45.7712 18.4142 46.0799 18.4142C46.3067 18.4142 46.5051 18.3984 46.6751 18.3668C46.8452 18.3353 46.9775 18.31 47.072 18.2911L47.5823 20.6301C47.4186 20.6932 47.1854 20.7563 46.8831 20.8195C46.5806 20.8889 46.2027 20.9268 45.7491 20.9331C45.0057 20.9457 44.3127 20.8131 43.6702 20.5354C43.0275 20.2575 42.5078 19.8283 42.1109 19.2475C41.714 18.6667 41.5157 17.9375 41.5157 17.06V2.71344ZM54.6672 21.0656C53.7474 21.0656 52.9158 20.8952 52.1725 20.5543C51.4291 20.2071 50.8401 19.7052 50.4055 19.0486C49.977 18.392 49.7628 17.5871 49.7628 16.6338C49.7628 15.8131 49.9203 15.1376 50.2354 14.6073C50.5503 14.077 50.9755 13.6572 51.511 13.3479C52.0465 13.0386 52.645 12.8049 53.3065 12.6471C53.968 12.4892 54.642 12.3693 55.3287 12.2873C56.1981 12.1863 56.9037 12.1042 57.4454 12.041C57.9873 11.9716 58.381 11.8611 58.6266 11.7096C58.8724 11.5581 58.9952 11.3119 58.9952 10.971V10.9047C58.9952 10.0776 58.7621 9.43692 58.2959 8.98236C57.836 8.5278 57.1493 8.30052 56.2359 8.30052C55.2846 8.30052 54.535 8.512 53.9868 8.93498C53.4451 9.35169 53.0703 9.81569 52.8623 10.3271L50.207 9.72092C50.5219 8.83713 50.9819 8.12369 51.5867 7.58082C52.1977 7.03159 52.9002 6.63385 53.6939 6.38759C54.4877 6.13508 55.3224 6.00882 56.1981 6.00882C56.7776 6.00882 57.3919 6.07826 58.0408 6.21713C58.6959 6.34975 59.307 6.596 59.874 6.9558C60.4473 7.31569 60.9166 7.83016 61.282 8.49939C61.6474 9.16226 61.8301 10.024 61.8301 11.0846V20.7437H59.0708V18.7551H58.9574C58.7747 19.1212 58.5006 19.481 58.1353 19.8346C57.7699 20.1881 57.3005 20.4817 56.7273 20.7153C56.154 20.9488 55.4673 21.0656 54.6672 21.0656ZM55.2815 18.7929C56.0626 18.7929 56.7304 18.6383 57.2847 18.3289C57.8455 18.0196 58.2708 17.6155 58.5605 17.1168C58.8566 16.6118 59.0046 16.072 59.0046 15.4974V13.6225C58.9039 13.7235 58.7085 13.8182 58.4188 13.9066C58.1353 13.9886 57.8108 14.0612 57.4454 14.1244C57.0801 14.1812 56.7241 14.2349 56.3776 14.2853C56.0311 14.3295 55.7413 14.3674 55.5083 14.399C54.9601 14.4684 54.4593 14.5852 54.0057 14.7493C53.5585 14.9135 53.1993 15.1503 52.9285 15.4596C52.6639 15.7627 52.5316 16.1667 52.5316 16.6717C52.5316 17.3725 52.7899 17.9028 53.3065 18.2627C53.8231 18.6162 54.4813 18.7929 55.2815 18.7929ZM72.3689 6.19826V8.47098H64.4406V6.19826H72.3689ZM66.5667 2.71344H69.3922V16.4728C69.3922 17.0221 69.4741 17.4356 69.6379 17.7134C69.8017 17.9848 70.0128 18.1711 70.271 18.2721C70.5357 18.3668 70.8222 18.4142 71.1309 18.4142C71.3577 18.4142 71.5562 18.3984 71.7263 18.3668C71.8964 18.3353 72.0287 18.31 72.1232 18.2911L72.6335 20.6301C72.4696 20.6932 72.2366 20.7563 71.9341 20.8195C71.6318 20.8889 71.2538 20.9268 70.8002 20.9331C70.0569 20.9457 69.3639 20.8131 68.7213 20.5354C68.0787 20.2575 67.559 19.8283 67.1621 19.2475C66.7652 18.6667 66.5667 17.9375 66.5667 17.06V2.71344ZM81.4524 21.0372C80.0916 21.0372 78.9041 20.7247 77.8898 20.0998C76.8756 19.4748 76.0881 18.6004 75.5275 17.4766C74.9667 16.3529 74.6864 15.0398 74.6864 13.5372C74.6864 12.0284 74.9667 10.7089 75.5275 9.57887C76.0881 8.44882 76.8756 7.57139 77.8898 6.94636C78.9041 6.32133 80.0916 6.00882 81.4524 6.00882C82.8132 6.00882 84.0006 6.32133 85.015 6.94636C86.0292 7.57139 86.8167 8.44882 87.3773 9.57887C87.938 10.7089 88.2183 12.0284 88.2183 13.5372C88.2183 15.0398 87.938 16.3529 87.3773 17.4766C86.8167 18.6004 86.0292 19.4748 85.015 20.0998C84.0006 20.7247 82.8132 21.0372 81.4524 21.0372ZM81.4619 18.6604C82.3438 18.6604 83.0746 18.4268 83.6542 17.9596C84.2337 17.4924 84.6622 16.8706 84.9393 16.0941C85.2228 15.3175 85.3646 14.4622 85.3646 13.5278C85.3646 12.5998 85.2228 11.7475 84.9393 10.971C84.6622 10.1881 84.2337 9.56 83.6542 9.08646C83.0746 8.61303 82.3438 8.37631 81.4619 8.37631C80.5736 8.37631 79.8365 8.61303 79.2507 9.08646C78.6711 9.56 78.2395 10.1881 77.956 10.971C77.6788 11.7475 77.5402 12.5998 77.5402 13.5278C77.5402 14.4622 77.6788 15.3175 77.956 16.0941C78.2395 16.8706 78.6711 17.4924 79.2507 17.9596C79.8365 18.4268 80.5736 18.6604 81.4619 18.6604ZM91.3722 20.7437V6.19826H94.1031V8.50882H94.2544C94.5189 7.72605 94.9851 7.11046 95.653 6.66226C96.327 6.20769 97.0893 5.98041 97.9397 5.98041C98.1162 5.98041 98.324 5.98677 98.5634 5.99939C98.8092 6.012 99.0013 6.0278 99.1398 6.04677V8.75508C99.0264 8.72349 98.8248 8.68872 98.5351 8.65087C98.2453 8.60667 97.9555 8.58462 97.6657 8.58462C96.9979 8.58462 96.4026 8.72667 95.8797 9.01077C95.3631 9.28851 94.9536 9.67682 94.6513 10.1755C94.3488 10.6679 94.1977 11.2298 94.1977 11.8611V20.7437H91.3722ZM101.585 20.7437V6.19826H104.41V20.7437H101.585ZM103.012 3.95395C102.52 3.95395 102.098 3.78975 101.745 3.46154C101.399 3.12687 101.225 2.72913 101.225 2.26831C101.225 1.80113 101.399 1.40339 101.745 1.07513C102.098 0.740534 102.52 0.573242 103.012 0.573242C103.504 0.573242 103.922 0.740534 104.268 1.07513C104.621 1.40339 104.798 1.80113 104.798 2.26831C104.798 2.72913 104.621 3.12687 104.268 3.46154C103.922 3.78975 103.504 3.95395 103.012 3.95395ZM112.435 21.0656C111.515 21.0656 110.684 20.8952 109.941 20.5543C109.197 20.2071 108.609 19.7052 108.174 19.0486C107.745 18.392 107.531 17.5871 107.531 16.6338C107.531 15.8131 107.689 15.1376 108.004 14.6073C108.319 14.077 108.744 13.6572 109.279 13.3479C109.814 13.0386 110.413 12.8049 111.075 12.6471C111.736 12.4892 112.41 12.3693 113.097 12.2873C113.967 12.1863 114.672 12.1042 115.214 12.041C115.756 11.9716 116.15 11.8611 116.395 11.7096C116.641 11.5581 116.764 11.3119 116.764 10.971V10.9047C116.764 10.0776 116.53 9.43692 116.065 8.98236C115.604 8.5278 114.917 8.30052 114.004 8.30052C113.053 8.30052 112.303 8.512 111.755 8.93498C111.213 9.35169 110.839 9.81569 110.631 10.3271L107.975 9.72092C108.29 8.83713 108.75 8.12369 109.355 7.58082C109.966 7.03159 110.669 6.63385 111.462 6.38759C112.256 6.13508 113.091 6.00882 113.967 6.00882C114.546 6.00882 115.16 6.07826 115.809 6.21713C116.464 6.34975 117.075 6.596 117.642 6.9558C118.216 7.31569 118.685 7.83016 119.05 8.49939C119.416 9.16226 119.599 10.024 119.599 11.0846V20.7437H116.839V18.7551H116.726C116.543 19.1212 116.269 19.481 115.904 19.8346C115.539 20.1881 115.069 20.4817 114.496 20.7153C113.923 20.9488 113.236 21.0656 112.435 21.0656ZM113.05 18.7929C113.83 18.7929 114.499 18.6383 115.054 18.3289C115.613 18.0196 116.039 17.6155 116.329 17.1168C116.625 16.6118 116.773 16.072 116.773 15.4974V13.6225C116.673 13.7235 116.477 13.8182 116.188 13.9066C115.904 13.9886 115.58 14.0612 115.214 14.1244C114.849 14.1812 114.493 14.2349 114.146 14.2853C113.8 14.3295 113.51 14.3674 113.277 14.399C112.728 14.4684 112.228 14.5852 111.774 14.7493C111.327 14.9135 110.968 15.1503 110.697 15.4596C110.433 15.7627 110.299 16.1667 110.299 16.6717C110.299 17.3725 110.558 17.9028 111.075 18.2627C111.591 18.6162 112.249 18.7929 113.05 18.7929ZM126.187 1.34975V20.7437H123.362V1.34975H126.187Z" fill="white"/>
<path d="M176.431 14.7115V6.19826H179.266V20.7437H176.488V18.2247H176.337C176.003 19.0012 175.468 19.6484 174.731 20.1661C174 20.6774 173.09 20.9331 172 20.9331C171.067 20.9331 170.242 20.7279 169.524 20.3175C168.812 19.9009 168.252 19.2853 167.842 18.471C167.439 17.6566 167.237 16.6496 167.237 15.4502V6.19826H170.062V15.1092C170.062 16.1004 170.336 16.8895 170.885 17.4766C171.433 18.0638 172.145 18.3573 173.02 18.3573C173.549 18.3573 174.075 18.2247 174.598 17.9596C175.127 17.6945 175.565 17.2935 175.912 16.7569C176.264 16.2203 176.438 15.5386 176.431 14.7115ZM183.063 20.7437V6.19826H185.888V20.7437H183.063ZM184.49 3.95395C183.999 3.95395 183.576 3.78975 183.224 3.46154C182.877 3.12687 182.704 2.72913 182.704 2.26831C182.704 1.80113 182.877 1.40339 183.224 1.07513C183.576 0.740534 183.999 0.573242 184.49 0.573242C184.981 0.573242 185.4 0.740534 185.747 1.07513C186.1 1.40339 186.276 1.80113 186.276 2.26831C186.276 2.72913 186.1 3.12687 185.747 3.46154C185.4 3.78975 184.981 3.95395 184.49 3.95395ZM196.465 6.19826V8.47098H188.537V6.19826H196.465ZM190.663 2.71344H193.488V16.4728C193.488 17.0221 193.57 17.4356 193.734 17.7134C193.898 17.9848 194.109 18.1711 194.368 18.2721C194.632 18.3668 194.918 18.4142 195.227 18.4142C195.453 18.4142 195.652 18.3984 195.823 18.3668C195.993 18.3353 196.125 18.31 196.219 18.2911L196.73 20.6301C196.566 20.6932 196.333 20.7563 196.031 20.8195C195.728 20.8889 195.35 20.9268 194.897 20.9331C194.153 20.9457 193.46 20.8131 192.817 20.5354C192.175 20.2575 191.655 19.8283 191.258 19.2475C190.861 18.6667 190.663 17.9375 190.663 17.06V2.71344ZM205.69 21.0372C204.26 21.0372 203.028 20.7311 201.996 20.1187C200.969 19.5 200.175 18.632 199.614 17.5146C199.06 16.3908 198.783 15.0745 198.783 13.5656C198.783 12.0758 199.06 10.7627 199.614 9.62626C200.175 8.48995 200.956 7.60287 201.958 6.96534C202.966 6.32769 204.144 6.00882 205.492 6.00882C206.31 6.00882 207.105 6.14462 207.873 6.416C208.642 6.68749 209.332 7.11364 209.943 7.69446C210.554 8.27528 211.036 9.02964 211.388 9.95775C211.741 10.8794 211.918 12 211.918 13.3195V14.3233H200.379V12.2021H209.149C209.149 11.457 208.998 10.7973 208.695 10.2229C208.393 9.64205 207.967 9.18431 207.42 8.84975C206.877 8.51518 206.242 8.3479 205.511 8.3479C204.717 8.3479 204.024 8.54359 203.431 8.93498C202.846 9.3201 202.393 9.82513 202.071 10.4502C201.756 11.0688 201.598 11.7411 201.598 12.4672V14.1244C201.598 15.0966 201.768 15.9236 202.109 16.6054C202.455 17.2873 202.937 17.8081 203.554 18.1679C204.172 18.5214 204.893 18.6983 205.719 18.6983C206.254 18.6983 206.742 18.6225 207.184 18.471C207.625 18.3131 208.005 18.0796 208.327 17.7703C208.648 17.4608 208.894 17.0789 209.064 16.6244L211.738 17.1073C211.524 17.8965 211.139 18.5878 210.586 19.1812C210.037 19.7683 209.347 20.2261 208.516 20.5543C207.69 20.8763 206.749 21.0372 205.69 21.0372Z" fill="white"/>
</svg>
