<svg width="20" height="20" viewBox="0 0 20 20" fill="none" xmlns="http://www.w3.org/2000/svg">
<path fill-rule="evenodd" clip-rule="evenodd" d="M11.1667 3.33333C11.1667 3.05719 11.3905 2.83333 11.6667 2.83333H17.5C17.7761 2.83333 18 3.05719 18 3.33333C18 3.60947 17.7761 3.83333 17.5 3.83333H11.6667C11.3905 3.83333 11.1667 3.60947 11.1667 3.33333Z" fill="#A7A7A7"/>
<path fill-rule="evenodd" clip-rule="evenodd" d="M2 3.33333C2 3.05719 2.22386 2.83333 2.5 2.83333H8.33333C8.60948 2.83333 8.83333 3.05719 8.83333 3.33333C8.83333 3.60947 8.60948 3.83333 8.33333 3.83333H2.5C2.22386 3.83333 2 3.60947 2 3.33333Z" fill="#A7A7A7"/>
<path fill-rule="evenodd" clip-rule="evenodd" d="M9.5 10C9.5 9.72386 9.72386 9.5 10 9.5H17.5C17.7761 9.5 18 9.72386 18 10C18 10.2761 17.7761 10.5 17.5 10.5H10C9.72386 10.5 9.5 10.2761 9.5 10Z" fill="#A7A7A7"/>
<path fill-rule="evenodd" clip-rule="evenodd" d="M2 10C2 9.72386 2.22386 9.5 2.5 9.5H6.66667C6.94281 9.5 7.16667 9.72386 7.16667 10C7.16667 10.2761 6.94281 10.5 6.66667 10.5H2.5C2.22386 10.5 2 10.2761 2 10Z" fill="#A7A7A7"/>
<path fill-rule="evenodd" clip-rule="evenodd" d="M12.8333 16.6667C12.8333 16.3905 13.0572 16.1667 13.3333 16.1667H17.5C17.7762 16.1667 18 16.3905 18 16.6667C18 16.9428 17.7762 17.1667 17.5 17.1667H13.3333C13.0572 17.1667 12.8333 16.9428 12.8333 16.6667Z" fill="#A7A7A7"/>
<path fill-rule="evenodd" clip-rule="evenodd" d="M2 16.6667C2 16.3905 2.22386 16.1667 2.5 16.1667H10C10.2761 16.1667 10.5 16.3905 10.5 16.6667C10.5 16.9428 10.2761 17.1667 10 17.1667H2.5C2.22386 17.1667 2 16.9428 2 16.6667Z" fill="#A7A7A7"/>
<path fill-rule="evenodd" clip-rule="evenodd" d="M11.6667 1.16667C11.9428 1.16667 12.1667 1.39053 12.1667 1.66667V5.00001C12.1667 5.27615 11.9428 5.5 11.6667 5.5C11.3905 5.5 11.1667 5.27615 11.1667 5.00001V1.66667C11.1667 1.39053 11.3905 1.16667 11.6667 1.16667Z" fill="#A7A7A7"/>
<path fill-rule="evenodd" clip-rule="evenodd" d="M6.66666 7.83333C6.9428 7.83333 7.16666 8.05719 7.16666 8.33333V11.6667C7.16666 11.9428 6.9428 12.1667 6.66666 12.1667C6.39051 12.1667 6.16666 11.9428 6.16666 11.6667V8.33333C6.16666 8.05719 6.39051 7.83333 6.66666 7.83333Z" fill="#A7A7A7"/>
<path fill-rule="evenodd" clip-rule="evenodd" d="M13.3333 14.5C13.6095 14.5 13.8333 14.7239 13.8333 15V18.3333C13.8333 18.6095 13.6095 18.8333 13.3333 18.8333C13.0572 18.8333 12.8333 18.6095 12.8333 18.3333V15C12.8333 14.7239 13.0572 14.5 13.3333 14.5Z" fill="#A7A7A7"/>
</svg>
