<svg width="17" height="17" viewBox="0 0 17 17" fill="none" xmlns="http://www.w3.org/2000/svg">
<path d="M6.0002 3C6.55248 3 7.0002 2.55228 7.0002 2C7.0002 1.44772 6.55248 1 6.0002 1V3ZM16 11C16 10.4477 15.5523 10 15 10C14.4477 10 14 10.4477 14 11H16ZM13.9078 15.782L13.4538 14.891L13.9078 15.782ZM14.7822 14.908L13.8912 14.454L14.7822 14.908ZM1.21799 14.908L0.32698 15.362H0.32698L1.21799 14.908ZM2.0918 15.782L2.54579 14.891H2.54579L2.0918 15.782ZM2.0918 2.21799L2.54579 3.10899L2.0918 2.21799ZM1.21799 3.09204L2.10899 3.54603L1.21799 3.09204ZM15 6C15 6.55228 15.4477 7 16 7C16.5523 7 17 6.55228 17 6H15ZM16 1H17C17 0.447715 16.5523 0 16 0V1ZM11 0C10.4477 0 10 0.447715 10 1C10 1.55228 10.4477 2 11 2V0ZM8.29289 7.29289C7.90237 7.68342 7.90237 8.31658 8.29289 8.70711C8.68342 9.09763 9.31658 9.09763 9.70711 8.70711L8.29289 7.29289ZM6.0002 1H4.2002V3H6.0002V1ZM0 5.19995V12.8H2V5.19995H0ZM4.2002 17H11.8002V15H4.2002V17ZM16 12.8V11H14V12.8H16ZM11.8002 17C12.3438 17 12.8115 17.0008 13.1951 16.9694C13.5904 16.9371 13.9835 16.8657 14.3618 16.673L13.4538 14.891C13.4043 14.9162 13.3036 14.9539 13.0321 14.9761C12.7489 14.9992 12.3767 15 11.8002 15V17ZM14 12.8C14 13.3767 13.9993 13.7489 13.9762 14.0323C13.954 14.3041 13.9164 14.4047 13.8912 14.454L15.6732 15.362C15.8661 14.9835 15.9373 14.5902 15.9696 14.1949C16.0008 13.8113 16 13.3435 16 12.8H14ZM14.3618 16.673C14.9257 16.3856 15.3854 15.927 15.6732 15.362L13.8912 14.454C13.7956 14.6417 13.6425 14.7948 13.4538 14.891L14.3618 16.673ZM0 12.8C0 13.3435 -0.000777602 13.8113 0.030569 14.195C0.0628681 14.5904 0.134179 14.9836 0.32698 15.362L2.10899 14.454C2.08381 14.4046 2.04613 14.3039 2.02393 14.0322C2.00078 13.7488 2 13.3765 2 12.8H0ZM4.2002 15C3.62367 15 3.25127 14.9992 2.96782 14.9761C2.69598 14.9538 2.59519 14.9161 2.54579 14.891L1.63781 16.673C2.01623 16.8658 2.40959 16.9371 2.80496 16.9694C3.18873 17.0008 3.65662 17 4.2002 17V15ZM0.32698 15.362C0.614523 15.9264 1.07317 16.3853 1.63781 16.673L2.54579 14.891C2.35778 14.7952 2.20494 14.6424 2.10899 14.454L0.32698 15.362ZM4.2002 1C3.65663 1 3.18874 0.999223 2.80498 1.03057C2.40962 1.06286 2.01624 1.13416 1.63781 1.32698L2.54579 3.10899C2.59517 3.08383 2.69595 3.04613 2.9678 3.02393C3.25126 3.00078 3.62365 3 4.2002 3V1ZM2 5.19995C2 4.6234 2.00078 4.25114 2.02393 3.96783C2.04612 3.6962 2.0838 3.59549 2.10899 3.54603L0.32698 2.63805C0.134191 3.01642 0.0628722 3.40961 0.0305698 3.80495C-0.000777841 4.18861 0 4.6564 0 5.19995H2ZM1.63781 1.32698C1.07306 1.61473 0.614469 2.07382 0.32698 2.63805L2.10899 3.54603C2.205 3.35761 2.35788 3.20474 2.54579 3.10899L1.63781 1.32698ZM17 6V1H15V6H17ZM16 0H11V2H16V0ZM9.70711 8.70711L16.7071 1.70711L15.2929 0.292893L8.29289 7.29289L9.70711 8.70711Z" fill="white"/>
</svg>
