<svg width="73" height="72" viewBox="0 0 73 72" fill="none" xmlns="http://www.w3.org/2000/svg">
<path fill-rule="evenodd" clip-rule="evenodd" d="M9.49995 43.2C10.4941 43.2 11.3 44.0058 11.3 45V56.9999C11.3 58.1139 11.7424 59.1821 12.5301 59.9698C13.3178 60.7574 14.386 61.1999 15.5 61.1999H57.4999C58.6139 61.1999 59.6821 60.7574 60.4698 59.9698C61.2574 59.1821 61.6999 58.1139 61.6999 56.9999V45C61.6999 44.0058 62.5058 43.2 63.4999 43.2C64.4941 43.2 65.2999 44.0058 65.2999 45V56.9999C65.2999 59.0686 64.4782 61.0526 63.0154 62.5154C61.5526 63.9782 59.5686 64.7999 57.4999 64.7999H15.5C13.4313 64.7999 11.4473 63.9782 9.98452 62.5154C8.52173 61.0526 7.69995 59.0686 7.69995 56.9999V45C7.69995 44.0058 8.50584 43.2 9.49995 43.2Z" fill="#A7A7A7"/>
<path fill-rule="evenodd" clip-rule="evenodd" d="M35.2272 7.72716C35.9301 7.02422 37.0698 7.02422 37.7727 7.72716L52.7727 22.7272C53.4757 23.4301 53.4757 24.5698 52.7727 25.2727C52.0698 25.9757 50.9301 25.9757 50.2272 25.2727L36.5 11.5455L22.7727 25.2727C22.0698 25.9757 20.9301 25.9757 20.2272 25.2727C19.5242 24.5698 19.5242 23.4301 20.2272 22.7272L35.2272 7.72716Z" fill="#A7A7A7"/>
<path fill-rule="evenodd" clip-rule="evenodd" d="M36.5 7.19995C37.4941 7.19995 38.3 8.00584 38.3 8.99995V45C38.3 45.9941 37.4941 46.8 36.5 46.8C35.5058 46.8 34.7 45.9941 34.7 45V8.99995C34.7 8.00584 35.5058 7.19995 36.5 7.19995Z" fill="#A7A7A7"/>
</svg>
