<svg width="160" height="160" viewBox="0 0 160 160" fill="none" xmlns="http://www.w3.org/2000/svg">
<rect width="160" height="160" rx="80" fill="url(#paint0_linear_99_17867)"/>
<rect x="32" y="32" width="96" height="96" rx="48" fill="url(#paint1_linear_99_17867)" fill-opacity="0.2"/>
<g clip-path="url(#clip0_99_17867)">
<path d="M91.025 77.06C90.005 71.885 85.46 68 80 68C75.665 68 71.9 70.46 70.025 74.06C65.51 74.54 62 78.365 62 83C62 87.965 66.035 92 71 92H90.5C94.64 92 98 88.64 98 84.5C98 80.54 94.925 77.33 91.025 77.06ZM90.5 89H71C67.685 89 65 86.315 65 83C65 79.925 67.295 77.36 70.34 77.045L71.945 76.88L72.695 75.455C74.12 72.71 76.91 71 80 71C83.93 71 87.32 73.79 88.085 77.645L88.535 79.895L90.83 80.06C93.17 80.21 95 82.175 95 84.5C95 86.975 92.975 89 90.5 89ZM74 81.5H77.825V86H82.175V81.5H86L80 75.5L74 81.5Z" fill="white"/>
</g>
<defs>
<linearGradient id="paint0_linear_99_17867" x1="80" y1="0" x2="80" y2="160" gradientUnits="userSpaceOnUse">
<stop stop-color="#2E2E2E"/>
<stop offset="1" stop-color="#252525" stop-opacity="0"/>
</linearGradient>
<linearGradient id="paint1_linear_99_17867" x1="80" y1="32" x2="80" y2="128" gradientUnits="userSpaceOnUse">
<stop stop-color="#ABABAB" stop-opacity="0.8"/>
<stop offset="1" stop-color="#9C9C9C" stop-opacity="0.2"/>
</linearGradient>
<clipPath id="clip0_99_17867">
<rect width="36" height="36" fill="white" transform="translate(62 62)"/>
</clipPath>
</defs>
</svg>
